<?xml version="1.0" encoding="UTF-8"?>
<svg id="Layer_1" data-name="Layer 1" xmlns="http://www.w3.org/2000/svg" version="1.1" viewBox="0 0 985 530">
  <defs>
    <style>
      .cls-1 {
        fill: #161b22;
        stroke-width: 0px;
      }

      .cls-2, .cls-3, .cls-4, .cls-5, .cls-6, .cls-7, .cls-8, .cls-9, .cls-10, .cls-11, .cls-12, .cls-13 {
        isolation: isolate;
      }

      .cls-2, .cls-3, .cls-4, .cls-5, .cls-7, .cls-8, .cls-9, .cls-10, .cls-11, .cls-12, .cls-13 {
        font-family: Consolas, Consolas;
      }

      .cls-2, .cls-4, .cls-8, .cls-10, .cls-11, .cls-13 {
        font-size: 16px;
      }

      .cls-2, .cls-5, .cls-7, .cls-12 {
        fill: #616e7f;
      }

      .cls-3, .cls-10 {
        fill: #ffa657;
      }

      .cls-3, .cls-12 {
        font-size: 17.1px;
      }

      .cls-4 {
        fill: #3fb950;
      }

      .cls-5 {
        font-size: 11.7px;
      }

      .cls-7 {
        font-size: 10.2px;
      }

      .cls-8 {
        fill: #a5d6ff;
      }

      .cls-9 {
        font-size: 7.8px;
      }

      .cls-9, .cls-13 {
        fill: #c9d1d9;
      }

      .cls-11 {
        fill: #f85149;
      }
    </style>
  </defs>
  <rect class="cls-1" width="985" height="530" rx="15" ry="15"/>
  <g class="cls-6">
    <text class="cls-9" transform="translate(-77.4 45.2) scale(1.1 1)"><tspan x="0" y="0" xml:space="preserve">                                                          .:-  :.-.:-..                             </tspan></text>
    <text class="cls-9" transform="translate(-77.4 54.6) scale(1.1 1)"><tspan x="0" y="0" xml:space="preserve">                                                   =-.#.=.@@: % -.+-  : ...                         </tspan></text>
    <text class="cls-9" transform="translate(-77.4 64) scale(1.1 1)"><tspan x="0" y="0" xml:space="preserve">                                              @#:#+ -@@@@@## .# %%@=@==+.=%:+..:                    </tspan></text>
    <text class="cls-9" transform="translate(-77.4 73.4) scale(1.1 1)"><tspan x="0" y="0" xml:space="preserve">                                             @@#.@#@@# # @@ =+@.=@  =- #*-=:= + =                   </tspan></text>
    <text class="cls-9" transform="translate(-77.4 82.8) scale(1.1 1)"><tspan x="0" y="0" xml:space="preserve">                                           @*@%=%@@#@:%.*=+ #@@@@@ .@@=-@ . #-%=#.                  </tspan></text>
    <text class="cls-9" transform="translate(-77.4 92.2) scale(1.1 1)"><tspan x="0" y="0" xml:space="preserve">                                           .@%@=@@*+*@%@%*=-+@+@:%%@@@@@*#@%@. ++ .                 </tspan></text>
    <text class="cls-9" transform="translate(-77.4 101.6) scale(1.1 1)"><tspan x="0" y="0" xml:space="preserve">                                         @@@@@@@#.%@@%@@@:@@@@-@@@@@@@@@@@:%@#=+:*:                 </tspan></text>
    <text class="cls-9" transform="translate(-77.4 111) scale(1.1 1)"><tspan x="0" y="0" xml:space="preserve">                                          @@@@@@@%@@@@@@@@@@@@@#@@@@@@+@@**@#*=@-+:%*               </tspan></text>
    <text class="cls-9" transform="translate(-77.4 120.4) scale(1.1 1)"><tspan x="0" y="0" xml:space="preserve">                                         @=@@@@@@*@#@%@@@*@a@@@@@@*@@@@@.%@@+@@@@=@...+              </tspan></text>
    <text class="cls-9" transform="translate(-77.4 129.8) scale(1.1 1)"><tspan x="0" y="0" xml:space="preserve">                                          @@@@@%@@=%%%@@@@@@@@@@@**%@#* % *@@@@#+#+%==.             </tspan></text>
    <text class="cls-9" transform="translate(-77.4 139.2) scale(1.1 1)"><tspan x="0" y="0" xml:space="preserve">                                         @@@@@@@@@%@***%@@@#++%@@#+@#.@@#@#@@#=#*.*#%:* :           </tspan></text>
    <text class="cls-9" transform="translate(-77.4 148.6) scale(1.1 1)"><tspan x="0" y="0" xml:space="preserve">                                         @@@@@=++++=+=+====--=@=**#+%.%@@@@@@+@# **@.%   =          </tspan></text>
    <text class="cls-9" transform="translate(-77.4 158) scale(1.1 1)"><tspan x="0" y="0" xml:space="preserve">                                         @@@%=--==+++++====--=+=%+**#+*@@@@@@@@#@@@ = .:@#          </tspan></text>
    <text class="cls-9" transform="translate(-77.4 167.4) scale(1.1 1)"><tspan x="0" y="0" xml:space="preserve">                                         @@=----=--=============@*@@#@*++***+=- -@@-=.@#@           </tspan></text>
    <text class="cls-9" transform="translate(-77.4 176.7) scale(1.1 1)"><tspan x="0" y="0" xml:space="preserve">                                         @#:-:=-=-----------=+++++*+++==:---:   -@@+:.              </tspan></text>
    <text class="cls-9" transform="translate(-77.4 186.1) scale(1.1 1)"><tspan x="0" y="0" xml:space="preserve">                                         %:-::+++==+=+------:===---:-::::::--  ::@#.*               </tspan></text>
    <text class="cls-9" transform="translate(-77.4 195.5) scale(1.1 1)"><tspan x="0" y="0" xml:space="preserve">                                       @%.=@@@@#@@@@%#+=-:---*=:--:::::::.: :.  :%%%#               </tspan></text>
    <text class="cls-9" transform="translate(-77.4 204.9) scale(1.1 1)"><tspan x="0" y="0" xml:space="preserve">                                     @#.@#++#*##@@*@@@@%*=--=+-----:::::  . .   .*@*                </tspan></text>
    <text class="cls-9" transform="translate(-77.4 214.3) scale(1.1 1)"><tspan x="0" y="0" xml:space="preserve">                                      @@=@-==+*+++#%% @@@@*+*@%##@@@*##*=:       #@                 </tspan></text>
    <text class="cls-9" transform="translate(-77.4 223.7) scale(1.1 1)"><tspan x="0" y="0" xml:space="preserve">                                     %=@= =+*%@@@@@@@@%@@@@%#%@@@@@    @+=%      %-                 </tspan></text>
    <text class="cls-9" transform="translate(-77.4 233.1) scale(1.1 1)"><tspan x="0" y="0" xml:space="preserve">                                     %%@ -:-=***+#@@@@%@#%*+.@@*####***+==-.=   ++                  </tspan></text>
    <text class="cls-9" transform="translate(-77.4 242.5) scale(1.1 1)"><tspan x="0" y="0" xml:space="preserve">                                     *+*.--=++*****#**+@*=-**@%%@@@@@@@%#+:: *-=   .                </tspan></text>
    <text class="cls-9" transform="translate(-77.4 251.9) scale(1.1 1)"><tspan x="0" y="0" xml:space="preserve">                                      %-*--===++==++=*@=-:.-@-=#@@%####*@@==-++#@#%.                </tspan></text>
    <text class="cls-9" transform="translate(-77.4 261.3) scale(1.1 1)"><tspan x="0" y="0" xml:space="preserve">                                     *#---.=-==+*+++%*=-:...@.::+*****++=--= +.:+%#                 </tspan></text>
    <text class="cls-9" transform="translate(-77.4 270.7) scale(1.1 1)"><tspan x="0" y="0" xml:space="preserve">                                     %--:--=*# ..#@@#+:.. :.:% ::::=----: . .. .+@*                 </tspan></text>
    <text class="cls-9" transform="translate(-77.4 280.1) scale(1.1 1)"><tspan x="0" y="0" xml:space="preserve">                                     %--:----==+*==---:.   ..+*::..::.:. . =.  *.+                  </tspan></text>
    <text class="cls-9" transform="translate(-77.4 289.5) scale(1.1 1)"><tspan x="0" y="0" xml:space="preserve">                                     %*-:::---=*+.....:..    .--  .::-. .=.   + .                   </tspan></text>
    <text class="cls-9" transform="translate(-77.4 298.9) scale(1.1 1)"><tspan x="0" y="0" xml:space="preserve">                                     %=:::-=+++*+*#%*=:---:...-::.  --.      =                      </tspan></text>
    <text class="cls-9" transform="translate(-77.4 308.3) scale(1.1 1)"><tspan x="0" y="0" xml:space="preserve">                                     %%=::-+@@@@@@@@@*:+*%%@+.  :..::..     .                       </tspan></text>
    <text class="cls-9" transform="translate(-77.4 317.7) scale(1.1 1)"><tspan x="0" y="0" xml:space="preserve">                                     #*+::=@@@@@@@@@@@%@@@@@-=.  ---:.::   - .                      </tspan></text>
    <text class="cls-9" transform="translate(-77.4 327.1) scale(1.1 1)"><tspan x="0" y="0" xml:space="preserve">                                      *+-::=#@%--**=-=*#@@@@@**+=-:--::   -%                        </tspan></text>
    <text class="cls-9" transform="translate(-77.4 336.5) scale(1.1 1)"><tspan x="0" y="0" xml:space="preserve">                                      @+=-=--:*%#%@@+=+=--*#@@@@@#.:::..-:+                         </tspan></text>
    <text class="cls-9" transform="translate(-77.4 345.9) scale(1.1 1)"><tspan x="0" y="0" xml:space="preserve">                                       %-=::.:. =++**+*##@@@%+%%@@+...:. +*                         </tspan></text>
    <text class="cls-9" transform="translate(-77.4 355.3) scale(1.1 1)"><tspan x="0" y="0" xml:space="preserve">                                       %-#=:::..::.:++++=++++-+==+:::.-:@#                          </tspan></text>
    <text class="cls-9" transform="translate(-77.4 364.7) scale(1.1 1)"><tspan x="0" y="0" xml:space="preserve">                                    :::.@@+---:..-#@##+...:..:::=::-:-=%                            </tspan></text>
    <text class="cls-9" transform="translate(-77.4 374.1) scale(1.1 1)"><tspan x="0" y="0" xml:space="preserve">                              #%%+:  +@@@@#+:---+#@@@@*:......:::=:#%@@.-.                          </tspan></text>
    <text class="cls-9" transform="translate(-77.4 383.5) scale(1.1 1)"><tspan x="0" y="0" xml:space="preserve">                           *#+-:-*@@@@%*:@@@*==++#@@%%+......-+==#@@@%-  @                          </tspan></text>
    <text class="cls-9" transform="translate(-77.4 392.9) scale(1.1 1)"><tspan x="0" y="0" xml:space="preserve">                         *-+#@@@@#%#+--*-@@@@@#@@@@@%@+.-.==+%@@@@@%+    :- .:                      </tspan></text>
    <text class="cls-9" transform="translate(-77.4 402.3) scale(1.1 1)"><tspan x="0" y="0" xml:space="preserve">                        %@@@@%#+=*+*+==#@@@@@@@@@@@@@@@%#@#@@@@@@@*-:   =+-.=%-..                   </tspan></text>
    <text class="cls-9" transform="translate(-77.4 411.7) scale(1.1 1)"><tspan x="0" y="0" xml:space="preserve">                       @@@%%*+*+-:==+++@@@@@@%@@@@@@@@@@@@@@@@@@*=::.  -@#+=+*= :                   </tspan></text>
    <text class="cls-9" transform="translate(-77.4 421) scale(1.1 1)"><tspan x="0" y="0" xml:space="preserve">                      @@@@@@@@@@+*-*@@@@@@@@   +@@@@@@@@@@@##=::::::: =#+-**%@+-*+ . .              </tspan></text>
    <text class="cls-9" transform="translate(-77.4 430.4) scale(1.1 1)"><tspan x="0" y="0" xml:space="preserve">                      @@@@@@@@@@@##@@@@@@@@@-    .=.:... :..:....:::+@#%#+@@**-=*+- @  ..           </tspan></text>
    <text class="cls-9" transform="translate(-77.4 439.8) scale(1.1 1)"><tspan x="0" y="0" xml:space="preserve">                      @@@@@@@@@@@@@@@@@@@@@@@              . ...:-#@@%%=.=+@:-==+@@@@@%@@%%       </tspan></text>
    <text class="cls-9" transform="translate(-77.4 449.2) scale(1.1 1)"><tspan x="0" y="0" xml:space="preserve">                      @@@@@@@@@@@@@@@@@@@@@@@@=:..... .......:+@@@@@%*+@#*=#--+@@@*- =%@:=.   </tspan></text>
    <text class="cls-9" transform="translate(-77.4 458.6) scale(1.1 1)"><tspan x="0" y="0" xml:space="preserve">                      @@@@@@@@@@@@@@@@@@@@@@@@@@@@@@%%###%@@@@@@@@+:#@%+*=.=#@@%#++*-:.-.=@</tspan></text>
    <text class="cls-9" transform="translate(-77.4 468) scale(1.1 1)"><tspan x="0" y="0" xml:space="preserve">                      @@@@@@@@@@@@@@@@@@@@@@@@@@@@@@@@@@@@@@@@@@-@@@@+-*%#@@@++= : :*- .-=%</tspan></text>
    <text class="cls-9" transform="translate(-77.4 477.4) scale(1.1 1)"><tspan x="0" y="0" xml:space="preserve">                      @@@@@@@@@@@@@@@@@@@@@@@@@@@@@@@@@@@@@@@@@@@@#-+::*%#*@+.#--%@@@@@@@@@</tspan></text>
    <text class="cls-9" transform="translate(-77.4 486.8) scale(1.1 1)"><tspan x="0" y="0" xml:space="preserve">                      @@@@@@@@@@@@@@@@@@@@@@@@@@@@@@@@@@@@@@@@#*%*==-**#.  -+*@@@@        .</tspan></text>
  </g>
  <g>
    <g class="cls-6">
      <text class="cls-13" transform="translate(390 47)"><tspan x="0" y="0">- itsneufox</tspan></text>
    </g>
    <g class="cls-6">
      <text class="cls-13" transform="translate(445.2 47.3)"><tspan x="0" y="0" xml:space="preserve">      -————————————————————————————————————————————-—-</tspan></text>
    </g>
    <g class="cls-6">
      <text class="cls-2" transform="translate(390 67)"><tspan x="0" y="0">.</tspan></text>
    </g>
    <g class="cls-6">
      <text class="cls-10" transform="translate(407.6 67)"><tspan x="0" y="0">OS</tspan></text>
    </g>
    <g class="cls-6">
      <text class="cls-13" transform="translate(425.2 67)"><tspan x="0" y="0">:</tspan></text>
    </g>
    <g class="cls-6">
      <text class="cls-5" transform="translate(434 63.5) scale(1.4 1)"><tspan x="0" y="0" xml:space="preserve"> ........................................ </tspan></text>
    </g>
    <g class="cls-6">
      <text class="cls-8" transform="translate(809.7 67)"><tspan x="0" y="0">HumanOS GenZ</tspan></text>
    </g>
    <g class="cls-6">
      <text class="cls-2" transform="translate(390 87)"><tspan x="0" y="0">.</tspan></text>
    </g>
    <g class="cls-6">
      <text class="cls-10" transform="translate(407.6 87)"><tspan x="0" y="0">Uptime</tspan></text>
    </g>
    <g class="cls-6">
      <text class="cls-13" transform="translate(460.4 87)"><tspan x="0" y="0">:</tspan></text>
    </g>
    <g class="cls-6">
      <text class="cls-2" transform="translate(469.2 87)"><tspan x="0" y="0" xml:space="preserve"> ...................... </tspan></text>
    </g>
    <g class="cls-6">
      <text class="cls-8" transform="translate(688 87.9)"><tspan x="0" y="0">26 years, 0 months, 3 days</tspan></text>
    </g>
    <g class="cls-6">
      <text class="cls-2" transform="translate(390 107)"><tspan x="0" y="0">.</tspan></text>
    </g>
    <g class="cls-6">
      <text class="cls-10" transform="translate(407.6 107)"><tspan x="0" y="0">Host</tspan></text>
    </g>
    <g class="cls-6">
      <text class="cls-13" transform="translate(442.8 107)"><tspan x="0" y="0">:</tspan></text>
    </g>
    <g class="cls-6">
      <text class="cls-2" transform="translate(451.6 107)"><tspan x="0" y="0" xml:space="preserve"> .............................. </tspan></text>
    </g>
    <g class="cls-6">
      <text class="cls-8" transform="translate(724.3 107)"><tspan x="0" y="0" xml:space="preserve">  Veolia Environnement</tspan></text>
    </g>
    <g class="cls-6">
      <text class="cls-2" transform="translate(390 127)"><tspan x="0" y="0">.</tspan></text>
    </g>
    <g class="cls-6">
      <text class="cls-10" transform="translate(407.6 127)"><tspan x="0" y="0">Kernel</tspan></text>
    </g>
    <g class="cls-6">
      <text class="cls-13" transform="translate(460.4 127)"><tspan x="0" y="0">:</tspan></text>
    </g>
    <g class="cls-6">
      <text class="cls-2" transform="translate(469.2 127)"><tspan x="0" y="0" xml:space="preserve"> .................................. </tspan></text>
    </g>
    <g class="cls-6">
      <text class="cls-8" transform="translate(539.5 127)"><tspan x="0" y="0" xml:space="preserve">                             Plant Operator</tspan></text>
    </g>
    <g class="cls-6">
      <text class="cls-2" transform="translate(390 147)"><tspan x="0" y="0">.</tspan></text>
    </g>
    <g class="cls-6">
      <text class="cls-10" transform="translate(407.6 147)"><tspan x="0" y="0">IDE</tspan></text>
    </g>
    <g class="cls-6">
      <text class="cls-13" transform="translate(434 147)"><tspan x="0" y="0">:</tspan></text>
    </g>
    <g class="cls-6">
      <text class="cls-2" transform="translate(442.8 147)"><tspan x="0" y="0" xml:space="preserve"> ...................................... </tspan></text>
    </g>
    <g class="cls-6">
      <text class="cls-8" transform="translate(671.5 147)"><tspan x="0" y="0" xml:space="preserve">               VSCode 1.97.2</tspan></text>
    </g>
    <g class="cls-6">
      <text class="cls-2" transform="translate(390 167)"><tspan x="0" y="0">.</tspan></text>
    </g>
    <g class="cls-6">
      <text class="cls-2" transform="translate(390 187)"><tspan x="0" y="0">.</tspan></text>
    </g>
    <g class="cls-6">
      <text class="cls-10" transform="translate(407.6 187)"><tspan x="0" y="0">Languages</tspan></text>
    </g>
    <g class="cls-6">
      <text class="cls-13" transform="translate(486.8 187)"><tspan x="0" y="0">.</tspan></text>
    </g>
    <g class="cls-6">
      <text class="cls-10" transform="translate(495.6 187)"><tspan x="0" y="0">Programming</tspan></text>
    </g>
    <g class="cls-6">
      <text class="cls-13" transform="translate(592.3 187)"><tspan x="0" y="0">:</tspan></text>
    </g>
    <g class="cls-6">
      <text class="cls-2" transform="translate(601.1 187)"><tspan x="0" y="0" xml:space="preserve"> ........... </tspan></text>
    </g>
    <g class="cls-6">
      <text class="cls-8" transform="translate(662.7 187)"><tspan x="0" y="0" xml:space="preserve">       Pawn, TypeScript, C++</tspan></text>
    </g>
    <g class="cls-6">
      <text class="cls-2" transform="translate(390 207)"><tspan x="0" y="0">.</tspan></text>
    </g>
    <g class="cls-6">
      <text class="cls-10" transform="translate(407.6 207)"><tspan x="0" y="0">Languages</tspan></text>
    </g>
    <g class="cls-6">
      <text class="cls-13" transform="translate(486.8 207)"><tspan x="0" y="0">.</tspan></text>
    </g>
    <g class="cls-6">
      <text class="cls-10" transform="translate(495.6 207)"><tspan x="0" y="0">Computer</tspan></text>
    </g>
    <g class="cls-6">
      <text class="cls-13" transform="translate(565.9 207)"><tspan x="0" y="0">:</tspan></text>
    </g>
    <g class="cls-6">
      <text class="cls-2" transform="translate(574.7 207)"><tspan x="0" y="0" xml:space="preserve"> ..................... </tspan></text>
    </g>
    <g class="cls-6">
      <text class="cls-8" transform="translate(671.5 207)"><tspan x="0" y="0" xml:space="preserve">             HTML, CSS, JSON</tspan></text>
    </g>
    <g class="cls-6">
      <text class="cls-2" transform="translate(390 227)"><tspan x="0" y="0">.</tspan></text>
    </g>
    <g class="cls-6">
      <text class="cls-10" transform="translate(407.6 227)"><tspan x="0" y="0">Languages</tspan></text>
    </g>
    <g class="cls-6">
      <text class="cls-13" transform="translate(486.8 227)"><tspan x="0" y="0">.</tspan></text>
    </g>
    <g class="cls-6">
      <text class="cls-10" transform="translate(495.6 227)"><tspan x="0" y="0">Real</tspan></text>
    </g>
    <g class="cls-6">
      <text class="cls-13" transform="translate(530.8 227)"><tspan x="0" y="0">:</tspan></text>
    </g>
    <g class="cls-6">
      <text class="cls-8" transform="translate(672.1 227)"><tspan x="0" y="0">English, Spanish, Portuguese</tspan></text>
    </g>
    <g class="cls-6">
      <text class="cls-2" transform="translate(390 247)"><tspan x="0" y="0">.</tspan></text>
    </g>
    <g class="cls-6">
      <text class="cls-2" transform="translate(390 267)"><tspan x="0" y="0">.</tspan></text>
    </g>
    <g class="cls-6">
      <text class="cls-10" transform="translate(407.6 267)"><tspan x="0" y="0">Hobbies</tspan></text>
    </g>
    <g class="cls-6">
      <text class="cls-13" transform="translate(469.2 267)"><tspan x="0" y="0">.</tspan></text>
    </g>
    <g class="cls-6">
      <text class="cls-10" transform="translate(478 267)"><tspan x="0" y="0">Software</tspan></text>
    </g>
    <g class="cls-6">
      <text class="cls-13" transform="translate(548.3 267)"><tspan x="0" y="0">:</tspan></text>
    </g>
    <g class="cls-6">
      <text class="cls-2" transform="translate(557.1 267)"><tspan x="0" y="0" xml:space="preserve"> .... </tspan></text>
    </g>
    <g class="cls-6">
      <text class="cls-8" transform="translate(609.9 267)"><tspan x="0" y="0" xml:space="preserve"> open.mp Private Server Development</tspan></text>
    </g>
    <g class="cls-6">
      <text class="cls-2" transform="translate(390 287)"><tspan x="0" y="0">.</tspan></text>
    </g>
    <g class="cls-6">
      <text class="cls-10" transform="translate(407.6 287)"><tspan x="0" y="0">Hobbies</tspan></text>
    </g>
    <g class="cls-6">
      <text class="cls-13" transform="translate(469.2 287)"><tspan x="0" y="0">.</tspan></text>
    </g>
    <g class="cls-6">
      <text class="cls-10" transform="translate(478 287)"><tspan x="0" y="0">Hardware</tspan></text>
    </g>
    <g class="cls-6">
      <text class="cls-13" transform="translate(548.3 287)"><tspan x="0" y="0">:</tspan></text>
    </g>
    <g class="cls-6">
      <text class="cls-2" transform="translate(557.1 287)"><tspan x="0" y="0" xml:space="preserve"> .............. </tspan></text>
    </g>
    <g class="cls-6">
      <text class="cls-8" transform="translate(689.1 287)"><tspan x="0" y="0" xml:space="preserve">  Overclocking, PC Buiding</tspan></text>
    </g>
    <g class="cls-6">
      <text class="cls-13" transform="translate(390 328)"><tspan x="0" y="0">- Contact</tspan></text>
    </g>
    <g class="cls-6">
      <text class="cls-13" transform="translate(469.2 328)"><tspan x="0" y="0" xml:space="preserve"> -——————————————————————————————————————————————-—-</tspan></text>
    </g>
    <g class="cls-6">
      <text class="cls-2" transform="translate(390 348)"><tspan x="0" y="0">.</tspan></text>
    </g>
    <g class="cls-6">
      <text class="cls-10" transform="translate(407.6 348)"><tspan x="0" y="0">Email</tspan></text>
    </g>
    <g class="cls-6">
      <text class="cls-13" transform="translate(451.6 348)"><tspan x="0" y="0">.</tspan></text>
    </g>
    <g class="cls-6">
      <text class="cls-10" transform="translate(460.4 348)"><tspan x="0" y="0">Personal</tspan></text>
    </g>
    <g class="cls-6">
      <text class="cls-13" transform="translate(530.8 348)"><tspan x="0" y="0">:</tspan></text>
    </g>
    <g class="cls-6">
      <text class="cls-2" transform="translate(539.5 348)"><tspan x="0" y="0" xml:space="preserve"> ................... </tspan></text>
    </g>
    <g class="cls-6">
      <text class="cls-8" transform="translate(731.9 348)"><tspan x="0" y="0">joaollfrias@gmail.com</tspan></text>
    </g>
    <g class="cls-6">
      <text class="cls-2" transform="translate(390 368)"><tspan x="0" y="0">.</tspan></text>
    </g>
    <g class="cls-6">
      <text class="cls-10" transform="translate(407.6 368)"><tspan x="0" y="0">Email</tspan></text>
    </g>
    <g class="cls-6">
      <text class="cls-13" transform="translate(451.6 368)"><tspan x="0" y="0">.</tspan></text>
    </g>
    <g class="cls-6">
      <text class="cls-10" transform="translate(460.4 368)"><tspan x="0" y="0">Personal</tspan></text>
    </g>
    <g class="cls-6">
      <text class="cls-13" transform="translate(530.8 368)"><tspan x="0" y="0">:</tspan></text>
    </g>
    <g class="cls-6">
      <text class="cls-2" transform="translate(539.5 368)"><tspan x="0" y="0" xml:space="preserve"> ....................... </tspan></text>
    </g>
    <g class="cls-6">
      <text class="cls-8" transform="translate(733.1 368)"><tspan x="0" y="0" xml:space="preserve">    ajuda@tntsamp.com</tspan></text>
    </g>
    <g class="cls-6">
      <text class="cls-12" transform="translate(390 391.3)"><tspan x="0" y="0">.</tspan></text>
    </g>
    <g class="cls-6">
      <text class="cls-3" transform="translate(408.8 391.3)"><tspan x="0" y="0">Discord</tspan></text>
    </g>
    <g class="cls-6">
      <text class="cls-13" transform="translate(474.2 390)"><tspan x="0" y="0">:</tspan></text>
    </g>
    <g class="cls-6">
      <text class="cls-7" transform="translate(477.8 390.7) scale(1.6 1)"><tspan x="0" y="0" xml:space="preserve"> ...................................... </tspan></text>
    </g>
    <g class="cls-6">
      <text class="cls-8" transform="translate(821 391)"><tspan x="0" y="0" xml:space="preserve">  itsneufox</tspan></text>
    </g>
    <g class="cls-6">
      <text class="cls-13" transform="translate(390 429)"><tspan x="0" y="0">- GitHub Stats</tspan></text>
    </g>
    <g class="cls-6">
      <text class="cls-13" transform="translate(513.2 429)"><tspan x="0" y="0" xml:space="preserve"> -—————————————————————————————————————————-—-</tspan></text>
    </g>
    <g class="cls-6">
      <text class="cls-2" transform="translate(390 449)"><tspan x="0" y="0">.</tspan></text>
    </g>
    <g class="cls-6">
      <text class="cls-10" transform="translate(407.6 449)"><tspan x="0" y="0">Repos</tspan></text>
    </g>
    <g class="cls-6">
      <text class="cls-13" transform="translate(451.6 449)"><tspan x="0" y="0">:</tspan></text>
    </g>
    <g class="cls-6">
      <text class="cls-2" transform="translate(460.4 449)"><tspan x="0" y="0" xml:space="preserve"> .... </tspan></text>
    </g>
    <g class="cls-6">
      <text class="cls-8" transform="translate(513.2 449)"><tspan x="0" y="0">28</tspan></text>
    </g>
    <g class="cls-6">
      <text class="cls-13" transform="translate(530.8 449)"><tspan x="0" y="0" xml:space="preserve"> {</tspan></text>
    </g>
    <g class="cls-6">
      <text class="cls-10" transform="translate(548.3 449)"><tspan x="0" y="0">Contributed</tspan></text>
    </g>
    <g class="cls-6">
      <text class="cls-13" transform="translate(645.1 449)"><tspan x="0" y="0">:</tspan></text>
    </g>
    <g class="cls-6">
      <text class="cls-8" transform="translate(662.7 449)"><tspan x="0" y="0" xml:space="preserve"> 5</tspan></text>
    </g>
    <g class="cls-6">
      <text class="cls-13" transform="translate(689.1 449)"><tspan x="0" y="0">} |</tspan></text>
    </g>
    <g class="cls-6">
      <text class="cls-10" transform="translate(724.3 449)"><tspan x="0" y="0">Stars</tspan></text>
    </g>
    <g class="cls-6">
      <text class="cls-13" transform="translate(768.3 449)"><tspan x="0" y="0">:</tspan></text>
    </g>
    <g class="cls-6">
      <text class="cls-2" transform="translate(777.1 449)"><tspan x="0" y="0" xml:space="preserve"> ........... </tspan></text>
    </g>
    <g class="cls-6">
      <text class="cls-8" transform="translate(891.4 449)"><tspan x="0" y="0" xml:space="preserve"> 17</tspan></text>
    </g>
    <g class="cls-6">
      <text class="cls-2" transform="translate(390 469)"><tspan x="0" y="0">.</tspan></text>
    </g>
    <g class="cls-6">
      <text class="cls-10" transform="translate(407.6 469)"><tspan x="0" y="0">Commmits</tspan></text>
    </g>
    <g class="cls-6">
      <text class="cls-13" transform="translate(478 469)"><tspan x="0" y="0">:</tspan></text>
    </g>
    <g class="cls-6">
      <text class="cls-2" transform="translate(486.8 469)"><tspan x="0" y="0" xml:space="preserve"> ................. </tspan></text>
    </g>
    <g class="cls-6">
      <text class="cls-8" transform="translate(653.9 469)"><tspan x="0" y="0">1000</tspan></text>
    </g>
    <g class="cls-6">
      <text class="cls-13" transform="translate(697.9 469)"><tspan x="0" y="0" xml:space="preserve"> | </tspan></text>
    </g>
    <g class="cls-6">
      <text class="cls-10" transform="translate(724.3 469)"><tspan x="0" y="0">Followers</tspan></text>
    </g>
    <g class="cls-6">
      <text class="cls-13" transform="translate(803.5 469)"><tspan x="0" y="0">:</tspan></text>
    </g>
    <g class="cls-6">
      <text class="cls-2" transform="translate(812.2 469)"><tspan x="0" y="0" xml:space="preserve"> ....... </tspan></text>
    </g>
    <g class="cls-6">
      <text class="cls-8" transform="translate(891.4 469)"><tspan x="0" y="0" xml:space="preserve">  3</tspan></text>
    </g>
    <g class="cls-6">
      <text class="cls-2" transform="translate(390 489)"><tspan x="0" y="0">.</tspan></text>
    </g>
    <g class="cls-6">
      <text class="cls-10" transform="translate(407.6 489)"><tspan x="0" y="0">Lines of Code on GitHub</tspan></text>
    </g>
    <g class="cls-6">
      <text class="cls-13" transform="translate(609.9 489)"><tspan x="0" y="0">:</tspan></text>
    </g>
    <g class="cls-6">
      <text class="cls-2" transform="translate(618.7 489)"><tspan x="0" y="0">.</tspan></text>
    </g>
    <g class="cls-6">
      <text class="cls-8" transform="translate(636.3 489)"><tspan x="0" y="0">446,276</tspan></text>
    </g>
    <g class="cls-6">
      <text class="cls-13" transform="translate(697.9 489)"><tspan x="0" y="0" xml:space="preserve"> ( </tspan></text>
    </g>
    <g class="cls-6">
      <text class="cls-4" transform="translate(724.3 489)"><tspan x="0" y="0">523,178</tspan></text>
    </g>
    <g class="cls-6">
      <text class="cls-4" transform="translate(785.9 489)"><tspan x="0" y="0">++</tspan></text>
    </g>
    <g class="cls-6">
      <text class="cls-13" transform="translate(803.5 489)"><tspan x="0" y="0">,</tspan></text>
    </g>
    <g class="cls-6">
      <text class="cls-11" transform="translate(821 489)"><tspan x="0" y="0">76,902</tspan></text>
    </g>
    <g class="cls-6">
      <text class="cls-11" transform="translate(873.8 489)"><tspan x="0" y="0">--</tspan></text>
    </g>
    <g class="cls-6">
      <text class="cls-13" transform="translate(891.4 489)"><tspan x="0" y="0" xml:space="preserve"> )</tspan></text>
    </g>
    <g class="cls-6">
      <text class="cls-2" transform="translate(540.4 227.6)"><tspan x="0" y="0" xml:space="preserve"> ........... </tspan></text>
    </g>
  </g>
</svg>